<svg xmlns="http://www.w3.org/2000/svg" width="29.97" height="19.411" viewBox="0 0 29.97 19.411"><defs><style>.a{fill:#56a646;}</style></defs><g transform="translate(-1609 -192.213)"><path class="a" d="M0,11.145v4.371a1.021,1.021,0,0,0,1.021,1.021H15.308a1.021,1.021,0,0,0,1.021-1.021V11.145Zm9.562-8.9a1.021,1.021,0,0,0-.674.223L0,9.393H16.329A7.152,7.152,0,0,0,9.562,2.249Z" transform="translate(1616.226 189.965)"/><g transform="translate(1609 208.113)"><path class="a" d="M29.092,435.466H.878a.878.878,0,1,0,0,1.756H2.969l.15.3a2.621,2.621,0,0,0,2.356,1.456H24.494a2.621,2.621,0,0,0,2.356-1.456l.15-.3h2.091a.878.878,0,1,0,0-1.756Z" transform="translate(0 -435.466)"/></g></g></svg>