<svg xmlns="http://www.w3.org/2000/svg" width="29.97" height="23.07" viewBox="0 0 29.97 23.07"><defs><style>.a{fill:#56a646;}</style></defs><g transform="translate(-1465 -188.555)"><g transform="translate(1468 185.237)"><g transform="translate(13.48 8.639)"><path class="a" d="M271.391,167.25c-.669-.671-1.927-.484-2.834-.195a8.026,8.026,0,0,0-3.057,1.8c-1.383,1.381-.812,2.4.536,3.749s2.372,1.913,3.749.536a8.028,8.028,0,0,0,1.8-3.057C271.994,168.815,271.923,167.781,271.391,167.25Z" transform="translate(-264.703 -166.793)"/></g><g transform="translate(19.826 3.318)"><path class="a" d="M396.056,64.007c-.579-.577-1.226-.411-1.665-.478a2.289,2.289,0,0,0-.478-1.665,1.572,1.572,0,0,0-2.143,0,1.521,1.521,0,0,0-.3,1.725l.231.483-.379.378-.971.929a3.06,3.06,0,0,1,1.414.771,3,3,0,0,1,.74,1.4l1.337-1.337.483.231a1.515,1.515,0,0,0,1.725-2.439Z" transform="translate(-390.356 -61.443)"/></g><g transform="translate(1.727 18.448)"><path class="a" d="M35.03,361a3.03,3.03,0,0,0-3.03,3.03h6.061A3.03,3.03,0,0,0,35.03,361Z" transform="translate(-32 -360.999)"/></g><g transform="translate(7.787 18.448)"><path class="a" d="M155.029,361a3.03,3.03,0,0,0-3.03,3.03h6.061A3.03,3.03,0,0,0,155.029,361Z" transform="translate(-151.999 -360.999)"/></g><g transform="translate(1.727 7.841)"><path class="a" d="M51.473,156.98a8.946,8.946,0,0,1-1.569,2.24c-2.018,2.02-3.952,1.4-5.891-.536s-2.576-3.854-.535-5.893a8.574,8.574,0,0,1,1.763-1.319A12.463,12.463,0,0,0,41.848,151C36.408,151,32,154.392,32,158.576a5.987,5.987,0,0,0,.47,2.31,4.5,4.5,0,0,1,5.591.388,4.526,4.526,0,0,1,7.576,3.363h2.082a7.171,7.171,0,0,0,3.979-6.061A5.923,5.923,0,0,0,51.473,156.98Z" transform="translate(-31.999 -151)"/></g></g><g transform="translate(1465 208.113)"><path class="a" d="M29.092,435.466H.878a.878.878,0,1,0,0,1.756H2.969l.15.3a2.621,2.621,0,0,0,2.356,1.456H24.494a2.621,2.621,0,0,0,2.356-1.456l.15-.3h2.091a.878.878,0,1,0,0-1.756Z" transform="translate(0 -435.466)"/></g></g></svg>