<svg xmlns="http://www.w3.org/2000/svg" width="28.496" height="28.496" viewBox="0 0 28.496 28.496"><defs><style>.a{fill:#56a646;}</style></defs><g transform="translate(0 0)"><path class="a" d="M24.323,4.173a14.248,14.248,0,0,0-20.15,20.15,14.248,14.248,0,0,0,20.15-20.15ZM14.248,25.7A11.464,11.464,0,0,1,2.8,14.248c0-.01,0-.021,0-.031s0-.005,0-.008,0-.009,0-.013a11.464,11.464,0,0,1,11.3-11.4l.039,0h.117a11.451,11.451,0,1,1,0,22.9Z" transform="translate(0 0)"/></g><g transform="translate(4.516 4.51)"><path class="a" d="M99.572,91.455a.843.843,0,1,1,0-1.686h1.016a9.782,9.782,0,0,0-8.988-8.74v.885a.843.843,0,1,1-1.686,0v-.864a9.782,9.782,0,0,0-8.765,8.836h.91a.843.843,0,0,1,0,1.686h-.917a9.781,9.781,0,0,0,8.889,8.924V99.427a.843.843,0,1,1,1.686,0V100.5a9.78,9.78,0,0,0,8.9-9.041Zm-5.285-2.908L91.47,91.363a.843.843,0,0,1-1.192,0l-4.9-4.9a.843.843,0,0,1,1.192-1.192l4.307,4.307,2.221-2.221a.843.843,0,1,1,1.192,1.192Z" transform="translate(-81.142 -81.029)"/></g></svg>