<svg xmlns="http://www.w3.org/2000/svg" width="34.911" height="32.726" viewBox="0 0 34.911 32.726"><defs><style>.a{fill:#56a646;}.b{fill:#fff;}.b,.c{stroke:#fdeca8;}.c,.e{fill:none;}.c{stroke-width:1.5px;}.d{stroke:none;}</style></defs><g transform="translate(-1393 -184.836)"><g transform="translate(1393 208.113)"><path class="a" d="M29.092,435.466H.878a.878.878,0,1,0,0,1.756H2.969l.15.3a2.621,2.621,0,0,0,2.356,1.456H24.494a2.621,2.621,0,0,0,2.356-1.456l.15-.3h2.091a.878.878,0,1,0,0-1.756Z" transform="translate(0 -435.466)"/></g><g transform="translate(1427.361 201.722) rotate(135)"><g transform="translate(-0.777 0)"><path class="a" d="M22.518,15.646a9.586,9.586,0,0,0-6.829,6.8c0,.017,0,.017-.132.6l-.012.056a13.958,13.958,0,0,1-5-3.114,14.305,14.305,0,0,1-3.4-5.734A22.258,22.258,0,0,1,6.175,9.6L.67,9.22H.662L.619,9.214l-.029,0L.554,9.2.519,9.193.493,9.185.452,9.17.432,9.161l-.044-.02L.369,9.13.33,9.107.3,9.088l-.028-.02L.241,9.039.223,9.023C.211,9.013.2,9,.19,8.989L.175,8.973.148,8.94.131,8.918l-.019-.03L.093,8.857.08,8.832C.073,8.818.066,8.8.06,8.791l0-.007L.05,8.768C.045,8.753.039,8.739.035,8.724S.029,8.706.027,8.7s-.007-.026-.01-.04,0-.023-.006-.034S.006,8.6,0,8.589s0-.027,0-.041S0,8.53,0,8.52s0-.031,0-.046,0-.012,0-.018,0-.005,0-.008,0-.027,0-.041,0-.02,0-.03,0-.022.007-.032.006-.025.009-.037l.008-.025c0-.014.009-.027.014-.041l.009-.022c.006-.014.012-.027.019-.04L.09,8.159l.021-.036L.128,8.1l.021-.029.022-.027.021-.023.027-.027.022-.02.029-.025.025-.019.029-.02.033-.02.025-.014.045-.022.014-.007.012,0h0l5.2-2.188L7.887.435l0-.008L7.9.4,7.92.368,7.93.35Q7.945.326,7.961.3l0,0c.013-.018.027-.036.041-.052l0,0C8.022.228,8.035.214,8.05.2L8.059.192,8.1.157,8.109.149c.016-.013.033-.025.051-.036L8.175.1,8.213.083,8.236.072,8.272.056,8.293.047,8.349.028,8.369.023,8.416.013l.017,0a.67.67,0,0,1,.207,0l.05.008.013,0,.057.014.014,0,.052.019.005,0,.015.007.042.02L8.914.1,8.946.12l.03.021L9,.159l.03.025L9.05.2l.028.028L9.1.254,9.12.282,9.141.31l.017.026.021.035.012.023c.007.013.013.027.019.04l.009.022c.005.013.01.027.014.041l.008.025c0,.012.006.024.009.036s.005.022.007.033,0,.02,0,.029,0,.027,0,.041V.668l.38,5.513a22.546,22.546,0,0,1,4.671.97,14.4,14.4,0,0,1,5.742,3.374,13.849,13.849,0,0,1,3.117,4.94Z" transform="translate(0)"/></g><path class="a" d="M8.141,7.056A1.1,1.1,0,0,1,7.048,8.144a25.29,25.29,0,0,1-5.772-.625Q.621,7.368,0,7.187l.049-.222.129-.591A8.7,8.7,0,0,1,6.369.218L7.167,0q.189.639.345,1.313A24.942,24.942,0,0,1,8.141,7.056ZM4.717,3.641a.727.727,0,0,0-.056-.05c-.019-.016-.04-.031-.06-.045a.748.748,0,0,0-.065-.038c-.022-.012-.045-.022-.068-.032S4.42,3.457,4.4,3.45a.792.792,0,0,0-.223-.034.752.752,0,0,0-.076,0,.744.744,0,0,0-.074.011c-.025,0-.049.011-.073.018s-.048.016-.071.025-.046.02-.068.032-.043.024-.064.038-.041.029-.06.045-.038.033-.056.05a.768.768,0,0,0-.225.54.743.743,0,0,0,0,.075c0,.025.007.049.011.074s.011.049.018.073.016.047.026.07.02.046.032.068a.714.714,0,0,0,.039.064.741.741,0,0,0,.045.061c.016.019.033.038.051.056a.748.748,0,0,0,.056.05c.019.016.039.031.06.045s.042.027.064.038a.721.721,0,0,0,.068.032c.023.01.047.018.071.025s.049.013.073.018a.751.751,0,0,0,.225.011.734.734,0,0,0,.075-.011c.025-.005.049-.011.073-.018s.048-.016.071-.025a.7.7,0,0,0,.068-.032c.022-.012.044-.024.065-.038s.041-.029.06-.045.038-.033.056-.05a.762.762,0,0,0,0-1.08Z" transform="translate(15.584 16.345)"/><g class="b" transform="translate(18.675 19.697)"><circle class="d" cx="1" cy="1" r="1"/><circle class="e" cx="1" cy="1" r="0.5"/></g></g><line class="c" x2="29" transform="translate(1393.5 207.5)"/></g></svg>