<svg xmlns="http://www.w3.org/2000/svg" width="27.085" height="33.609" viewBox="0 0 27.085 33.609"><defs><style>.a{fill:#56a646;}</style></defs><g transform="translate(-44.954)"><path class="a" d="M63.335,21.8c-.126.62-.637,2.3-1.468,2.647a1.01,1.01,0,0,1-.97-.184c-1.753-1.168-2.782-4.335-3.024-5.154L57.75,15.2s-3.819-.144-3.806-9.387l.023,0c0-.021-.009-.082-.023-.174,0-.022,0-.043,0-.065h-.01C53.779,4.471,52.989,0,50.48,0h-.013C47.853.018,47.1,4.856,46.989,5.714h-.015c0,.038,0,.076,0,.113a.045.045,0,0,1,0,.012h0C47.02,15.2,43.187,15.2,43.187,15.2l-.131,4.118c-.327,1.05-1.329,3.859-2.96,4.948a1.012,1.012,0,0,1-.97.184c-.832-.343-1.342-2.028-1.468-2.647l-.7.144c.054.267.566,2.616,1.9,3.166a1.487,1.487,0,0,0,.572.116,1.929,1.929,0,0,0,1.069-.366,8.067,8.067,0,0,0,2.492-3.341l-.357,11.291,7.79.787v.009l.05,0,.049,0V33.6l7.789-.787-.362-11.425A8.232,8.232,0,0,0,60.5,24.863a1.935,1.935,0,0,0,1.069.366,1.485,1.485,0,0,0,.572-.116c1.333-.549,1.844-2.9,1.9-3.166ZM50.419,5.878c-.33,0-1.657-.1-2.708-.146.207-1.553,1.028-5,2.761-5.013h.007c1.686,0,2.511,3.294,2.738,4.889-1.048.078-2.369.27-2.7.27Z" transform="translate(8)"/></g></svg>