<svg xmlns="http://www.w3.org/2000/svg" width="13.888" height="13.314" viewBox="0 0 13.888 13.314"><defs><style>.a{fill:#ffc107;}</style></defs><path class="a" d="M3.109,13.806a.739.739,0,0,1-.719-.9l.893-3.937L.253,6.308A.739.739,0,0,1,.672,5.016l4.009-.364L6.266.941a.738.738,0,0,1,1.358,0L9.208,4.652l4.008.364a.739.739,0,0,1,.42,1.292l-3.03,2.658L11.5,12.9a.738.738,0,0,1-1.1.8L6.945,11.634,3.487,13.7a.74.74,0,0,1-.378.1Zm3.835-3.063a.74.74,0,0,1,.378.1L10.586,12.8,9.742,9.084a.739.739,0,0,1,.234-.72l2.861-2.51L9.052,5.511a.737.737,0,0,1-.613-.448l-1.494-3.5-1.5,3.5a.735.735,0,0,1-.612.446l-3.786.344,2.861,2.51a.737.737,0,0,1,.234.72L3.3,12.8l3.263-1.951a.739.739,0,0,1,.378-.1ZM4.65,4.723h0Zm4.588,0h0Zm0,0" transform="translate(-0.001 -0.492)"/></svg>