<svg xmlns="http://www.w3.org/2000/svg" width="29.97" height="18.286" viewBox="0 0 29.97 18.286"><defs><style>.a{fill:#56a646;}</style></defs><g transform="translate(0 -26.281)"><g transform="translate(0 41.055)"><path class="a" d="M29.092,435.466H.878a.878.878,0,1,0,0,1.756H2.969l.15.3a2.621,2.621,0,0,0,2.356,1.456H24.494a2.621,2.621,0,0,0,2.356-1.456l.15-.3h2.091a.878.878,0,1,0,0-1.756Z" transform="translate(0 -435.466)"/></g><g transform="translate(-1 -0.726)"><g transform="translate(7.29 27.007)"><path class="a" d="M121.93,195.466a.929.929,0,0,0-.93.93v4.649h7.439v-5.579Z" transform="translate(-121 -195.466)"/></g><g transform="translate(16.589 27.007)"><path class="a" d="M277.509,195.466H271v5.579h7.439V196.4A.929.929,0,0,0,277.509,195.466Z" transform="translate(-271 -195.466)"/></g><g transform="translate(12.869 34.446)"><rect class="a" width="5.579" height="5.579"/></g><g transform="translate(20.308 34.446)"><path class="a" d="M337.509,315.466H331v5.579h7.439V316.4A.929.929,0,0,0,337.509,315.466Z" transform="translate(-331 -315.466)"/></g><g transform="translate(3.571 34.446)"><path class="a" d="M61.93,315.466a.929.929,0,0,0-.93.93v4.649h7.439v-5.579Z" transform="translate(-61 -315.466)"/></g></g></g></svg>