<svg xmlns="http://www.w3.org/2000/svg" width="30.475" height="30.996" viewBox="0 0 30.475 30.996"><defs><style>.a{fill:#56a646;}</style></defs><g transform="translate(-8.199 5)"><g transform="translate(8.199 -5)"><path class="a" d="M33.4,114.287c-.2-.227-.775-.527-1-.331l-.006.008h0l-6.471,5.55a14.414,14.414,0,0,1-1.707,1.915,59.563,59.563,0,0,0-7.19-.455v0l-.245,0-.244,0v0a53.485,53.485,0,0,0-8.849.71c-3.143.577-4.485,1.333-4.485,2.526a1.4,1.4,0,0,0,.019.233c-.2,3.931,3.205,11.173,8.527,11.173H21.81c5.321,0,8.724-7.242,8.528-11.173a1.572,1.572,0,0,0,.018-.233c0-1.192-1.342-1.949-4.486-2.524-.049-.009-.105-.019-.155-.025a9.3,9.3,0,0,1,1.374-.767l6.48-5.557h0a.013.013,0,0,1,.008-.007C33.8,115.132,33.593,114.515,33.4,114.287ZM4.991,124.21c1.061-.61,5.055-1.527,11.786-1.551,2.177.008,4.062.11,5.66.265a17.535,17.535,0,0,1-1.548,1.02.068.068,0,0,0,.011.013,4.358,4.358,0,0,0-5.387.42,4.909,4.909,0,0,0-1.092,1.337C9.11,125.516,5.922,124.746,4.991,124.21Zm23.574,0c-.745.428-2.93,1-6.481,1.319-.045-.114-.08-.23-.136-.34a16.164,16.164,0,0,1,1.934-2.106A15.454,15.454,0,0,1,28.565,124.21Z" transform="translate(-3.199 -104.62)"/><path class="a" d="M88.3,51.4a3.568,3.568,0,0,0,.342.489l.3.364a2.384,2.384,0,0,1,.186.35,3.23,3.23,0,0,1,.239.814,8.109,8.109,0,0,1,.064,1.705c-.07,1.053-.171,1.823-.171,1.823a5.141,5.141,0,0,0,1.01-1.626,4.979,4.979,0,0,0,.291-.907,4.329,4.329,0,0,0,.126-1.1,3.557,3.557,0,0,0-.2-1.241,3.964,3.964,0,0,0-.293-.619,3.424,3.424,0,0,0-.2-.286l-.108-.139-.054-.068-.014-.018c.007.009.018.019.039.043l-.006-.007-.019-.026a2.683,2.683,0,0,1-.3-.394,1.629,1.629,0,0,1-.151-.315,3.558,3.558,0,0,1-.224-.827A8.959,8.959,0,0,1,89.1,47.7c.07-1.056.162-1.828.162-1.828A5.855,5.855,0,0,0,87.82,49.5,3.6,3.6,0,0,0,88,50.734,3.044,3.044,0,0,0,88.3,51.4Z" transform="translate(-80.931 -42.14)"/><path class="a" d="M129.027,5.522a3.558,3.558,0,0,0,.342.49l.3.362a2.406,2.406,0,0,1,.186.352,3.183,3.183,0,0,1,.239.812,8.186,8.186,0,0,1,.065,1.706c-.07,1.054-.172,1.823-.172,1.823A5.157,5.157,0,0,0,131,9.444a5.123,5.123,0,0,0,.292-.909,4.35,4.35,0,0,0,.127-1.1,3.51,3.51,0,0,0-.2-1.241,4.064,4.064,0,0,0-.293-.62c-.058-.1-.136-.189-.2-.285l-.106-.14-.055-.068-.015-.018a.369.369,0,0,0,.032.036l-.02-.026a2.779,2.779,0,0,1-.3-.392,1.821,1.821,0,0,1-.152-.318,3.475,3.475,0,0,1-.222-.826,8.94,8.94,0,0,1-.051-1.718C129.9.769,129.988,0,129.988,0a5.274,5.274,0,0,0-1.006,1.625,5.332,5.332,0,0,0-.432,1.994,3.579,3.579,0,0,0,.177,1.238A3.032,3.032,0,0,0,129.027,5.522Z" transform="translate(-118.346)"/><path class="a" d="M153.386,62.707l-.006-.007h0Z" transform="translate(-141.153 -57.595)"/><path class="a" d="M179.365,47.128a3.571,3.571,0,0,0,.34.49l.3.362a2.632,2.632,0,0,1,.186.352,3.278,3.278,0,0,1,.238.812,8.05,8.05,0,0,1,.063,1.705c-.069,1.055-.17,1.824-.17,1.824a5.163,5.163,0,0,0,1.01-1.625,5.042,5.042,0,0,0,.292-.908,4.353,4.353,0,0,0,.125-1.1,3.555,3.555,0,0,0-.2-1.241,3.878,3.878,0,0,0-.294-.618c-.058-.1-.135-.19-.2-.286l-.108-.14-.055-.069-.013-.018c.007.009.017.02.038.044l0-.008-.022-.027a2.6,2.6,0,0,1-.3-.392,1.7,1.7,0,0,1-.152-.318,3.6,3.6,0,0,1-.222-.826,9.061,9.061,0,0,1-.052-1.718c.069-1.056.162-1.826.162-1.826a5.849,5.849,0,0,0-1.436,3.62,3.55,3.55,0,0,0,.175,1.237A3.066,3.066,0,0,0,179.365,47.128Z" transform="translate(-164.584 -38.218)"/></g></g></svg>